<?xml version="1.0" encoding="utf-8"?>
<!-- Generator: Adobe Illustrator 24.0.1, SVG Export Plug-In . SVG Version: 6.00 Build 0)  -->
<svg version="1.1" id="Layer_1" xmlns="http://www.w3.org/2000/svg" xmlns:xlink="http://www.w3.org/1999/xlink" x="0px" y="0px"
	 viewBox="0 0 777.49 250" style="enable-background:new 0 0 777.49 250;" xml:space="preserve">
<style type="text/css">
	.st0{fill:#415CAA;}
	.st1{fill:#454545;}
	.st2{fill:#4876BA;}
	.st3{fill:#96C942;}
	.st4{fill:#55BA5D;}
</style>
<path class="st0" d="M254.7,40.72l-10.14-6.12l-21.59,12.91c-0.48,0.28-0.71,0.77-0.71,1.26h18.95L254.7,40.72z"/>
<path class="st1" d="M47.41,35.37H34.98c-0.42,0-0.76-0.34-0.76-0.76v-4.73c0-0.42,0.34-0.76,0.76-0.76h32.26
	c0.42,0,0.76,0.34,0.76,0.76v4.73c0,0.42-0.34,0.76-0.76,0.76H54.8v33.55h-7.39V35.37z"/>
<path class="st1" d="M105.25,63.48v4.68c0,0.42-0.34,0.76-0.76,0.76h-29.1V29.11h28.3c0.42,0,0.76,0.34,0.76,0.76v4.68
	c0,0.42-0.34,0.76-0.76,0.76H82.79v10.35h18.46c0.42,0,0.76,0.34,0.76,0.76v4.56c0,0.42-0.34,0.76-0.76,0.76H82.79v10.98h21.7
	C104.91,62.72,105.25,63.06,105.25,63.48z"/>
<path class="st1" d="M113.33,49.02c0-11.89,9.1-20.47,21.33-20.47c6.2,0,11.57,2.13,15.26,6.1c0.28,0.3,0.25,0.78-0.05,1.07
	l-3.69,3.47c-0.3,0.28-0.77,0.27-1.06-0.03c-2.81-2.77-6.21-4.13-10.11-4.13c-8.25,0-14.22,5.8-14.22,13.99
	c0,8.19,5.97,13.99,14.22,13.99c3.91,0,7.31-1.36,10.11-4.17c0.3-0.3,0.77-0.32,1.07-0.03l3.69,3.52c0.3,0.28,0.32,0.76,0.04,1.06
	c-3.69,3.97-9.06,6.1-15.32,6.1C122.43,69.49,113.33,60.9,113.33,49.02z"/>
<path class="st1" d="M195.73,29.87v38.29c0,0.42-0.34,0.76-0.76,0.76h-5.87c-0.42,0-0.76-0.34-0.76-0.76v-16.3h-20.59v16.3
	c0,0.42-0.34,0.76-0.76,0.76h-5.87c-0.42,0-0.76-0.34-0.76-0.76V29.87c0-0.42,0.34-0.76,0.76-0.76h5.87c0.42,0,0.76,0.34,0.76,0.76
	v15.67h20.59V29.87c0-0.42,0.34-0.76,0.76-0.76h5.87C195.39,29.11,195.73,29.45,195.73,29.87z"/>
<path class="st2" d="M229.94,14.74l-21.81,12.91c-0.59,0.35-0.96,0.99-0.96,1.68v7.71c0,1.51,1.64,2.44,2.94,1.68l20.82-12.32
	l23.76,14.34v-12.4l-22.77-13.58C231.32,14.38,230.56,14.38,229.94,14.74z"/>
<path class="st3" d="M229.94,82.79l-21.81-12.91c-0.59-0.35-0.96-0.99-0.96-1.68V60.5c0-1.51,1.64-2.44,2.94-1.68l20.82,12.32
	l23.76-14.34v12.4l-22.77,13.58C231.32,83.15,230.56,83.15,229.94,82.79z"/>
<path class="st4" d="M222.97,50.02l21.59,12.91l10.14-6.12l-13.5-8.05h-18.95C222.25,49.25,222.49,49.74,222.97,50.02z"/>
</svg>
