<?xml version="1.0" encoding="utf-8"?>
<!-- Generator: Adobe Illustrator 24.0.1, SVG Export Plug-In . SVG Version: 6.00 Build 0)  -->
<svg version="1.1" id="Layer_1" xmlns="http://www.w3.org/2000/svg" xmlns:xlink="http://www.w3.org/1999/xlink" x="0px" y="0px"
	 viewBox="0 0 777.49 250" style="enable-background:new 0 0 777.49 250;" xml:space="preserve">
<style type="text/css">
	.st0{fill:#415CAA;}
	.st1{fill:#454545;}
	.st2{fill:#4876BA;}
	.st3{fill:#96C942;}
	.st4{fill:#55BA5D;}
</style>
<path class="st0" d="M742.55,98.79l-32.59-19.66L640.6,120.6c-1.53,0.91-2.29,2.48-2.29,4.05h60.89L742.55,98.79z"/>
<path class="st1" d="M76.6,81.61H36.66c-1.35,0-2.44-1.09-2.44-2.44V63.96c0-1.35,1.09-2.44,2.44-2.44H140.3
	c1.35,0,2.44,1.09,2.44,2.44v15.21c0,1.35-1.09,2.44-2.44,2.44h-39.94V189.4H76.6V81.61z"/>
<path class="st1" d="M262.42,171.93v15.03c0,1.35-1.09,2.44-2.44,2.44h-93.47V61.51h90.92c1.35,0,2.44,1.09,2.44,2.44v15.03
	c0,1.35-1.09,2.44-2.44,2.44h-67.17v33.25h59.31c1.35,0,2.44,1.09,2.44,2.44v14.66c0,1.35-1.09,2.44-2.44,2.44h-59.31v35.26h69.72
	C261.33,169.49,262.42,170.58,262.42,171.93z"/>
<path class="st1" d="M288.37,125.46c0-38.18,29.23-65.77,68.51-65.77c19.92,0,37.16,6.85,49.01,19.59c0.91,0.97,0.82,2.52-0.15,3.43
	l-11.86,11.15c-0.97,0.91-2.47,0.85-3.42-0.08c-9.01-8.89-19.94-13.26-32.49-13.26c-26.49,0-45.68,18.64-45.68,44.94
	c0,26.31,19.18,44.94,45.68,44.94c12.55,0,23.47-4.36,32.48-13.4c0.95-0.95,2.47-1.01,3.44-0.09l11.86,11.3
	c0.96,0.91,1.04,2.45,0.14,3.42c-11.85,12.75-29.11,19.6-49.21,19.6C317.6,191.23,288.37,163.64,288.37,125.46z"/>
<path class="st1" d="M553.1,63.96v123c0,1.35-1.09,2.44-2.44,2.44h-18.86c-1.35,0-2.44-1.09-2.44-2.44v-52.37h-66.14v52.37
	c0,1.35-1.09,2.44-2.44,2.44H441.9c-1.35,0-2.44-1.09-2.44-2.44v-123c0-1.35,1.09-2.44,2.44-2.44h18.87c1.35,0,2.44,1.09,2.44,2.44
	v50.36h66.14V63.96c0-1.35,1.09-2.44,2.44-2.44h18.86C552,61.51,553.1,62.61,553.1,63.96z"/>
<path class="st2" d="M663.01,15.34l-70.07,41.47c-1.9,1.13-3.07,3.17-3.07,5.38v24.75c0,4.84,5.27,7.85,9.44,5.38l66.9-39.59
	l76.34,46.06V58.97l-73.15-43.62C667.43,14.18,664.98,14.17,663.01,15.34z"/>
<path class="st3" d="M663.01,233.96l-70.07-41.47c-1.9-1.13-3.07-3.17-3.07-5.38v-24.75c0-4.84,5.27-7.85,9.44-5.38l66.9,39.59
	l76.34-46.06v39.82l-73.15,43.62C667.43,235.12,664.98,235.13,663.01,233.96z"/>
<path class="st4" d="M640.6,128.7l69.36,41.47l32.59-19.66l-43.36-25.86h-60.89C638.31,126.22,639.07,127.78,640.6,128.7z"/>
</svg>
