<?xml version="1.0" encoding="utf-8"?>
<!-- Generator: Adobe Illustrator 24.0.1, SVG Export Plug-In . SVG Version: 6.00 Build 0)  -->
<svg version="1.1" id="Layer_1" xmlns="http://www.w3.org/2000/svg" xmlns:xlink="http://www.w3.org/1999/xlink" x="0px" y="0px"
	 viewBox="0 0 264.08 84.91" style="enable-background:new 0 0 264.08 84.91;" xml:space="preserve">
<style type="text/css">
	.st0{fill:#415CAA;}
	.st1{fill:#454545;}
	.st2{fill:#4876BA;}
	.st3{fill:#96C942;}
	.st4{fill:#55BA5D;}
</style>
<g>
	<path class="st0" d="M215.85,35.15l-7.7-4.65l-16.39,9.8c-0.36,0.22-0.54,0.59-0.54,0.96h14.38L215.85,35.15z"/>
	<path class="st1" d="M58.51,31.09h-9.44c-0.32,0-0.58-0.26-0.58-0.58v-3.59c0-0.32,0.26-0.58,0.58-0.58h24.49
		c0.32,0,0.58,0.26,0.58,0.58v3.59c0,0.32-0.26,0.58-0.58,0.58h-9.44v25.47h-5.61V31.09z"/>
	<path class="st1" d="M102.41,52.43v3.55c0,0.32-0.26,0.58-0.58,0.58H79.75V26.34h21.48c0.32,0,0.58,0.26,0.58,0.58v3.55
		c0,0.32-0.26,0.58-0.58,0.58H85.36v7.86h14.01c0.32,0,0.58,0.26,0.58,0.58v3.46c0,0.32-0.26,0.58-0.58,0.58H85.36v8.33h16.47
		C102.15,51.85,102.41,52.11,102.41,52.43z"/>
	<path class="st1" d="M108.54,41.45c0-9.02,6.91-15.54,16.19-15.54c4.71,0,8.78,1.62,11.58,4.63c0.21,0.23,0.19,0.59-0.04,0.81
		l-2.8,2.64c-0.23,0.22-0.58,0.2-0.81-0.02c-2.13-2.1-4.71-3.13-7.68-3.13c-6.26,0-10.79,4.4-10.79,10.62
		c0,6.22,4.53,10.62,10.79,10.62c2.96,0,5.55-1.03,7.67-3.17c0.22-0.22,0.58-0.24,0.81-0.02l2.8,2.67c0.23,0.22,0.25,0.58,0.03,0.81
		c-2.8,3.01-6.88,4.63-11.63,4.63C115.45,56.99,108.54,50.47,108.54,41.45z"/>
	<path class="st1" d="M171.09,26.92v29.06c0,0.32-0.26,0.58-0.58,0.58h-4.46c-0.32,0-0.58-0.26-0.58-0.58V43.61h-15.63v12.37
		c0,0.32-0.26,0.58-0.58,0.58h-4.46c-0.32,0-0.58-0.26-0.58-0.58V26.92c0-0.32,0.26-0.58,0.58-0.58h4.46c0.32,0,0.58,0.26,0.58,0.58
		v11.9h15.63v-11.9c0-0.32,0.26-0.58,0.58-0.58h4.46C170.83,26.34,171.09,26.6,171.09,26.92z"/>
	<path class="st2" d="M197.05,15.43l-16.56,9.8c-0.45,0.27-0.73,0.75-0.73,1.27v5.85c0,1.14,1.25,1.85,2.23,1.27l15.81-9.35
		l18.04,10.88v-9.41l-17.28-10.3C198.1,15.16,197.52,15.16,197.05,15.43z"/>
	<path class="st3" d="M197.05,67.09l-16.56-9.8c-0.45-0.27-0.73-0.75-0.73-1.27v-5.85c0-1.14,1.25-1.85,2.23-1.27l15.81,9.35
		l18.04-10.88v9.41l-17.28,10.3C198.1,67.36,197.52,67.36,197.05,67.09z"/>
	<path class="st4" d="M191.76,42.22l16.39,9.8l7.7-4.65l-10.24-6.11h-14.38C191.22,41.63,191.4,42,191.76,42.22z"/>
</g>
</svg>
